
<svg width="18" height="18" viewBox="0 0 18 18" fill="none" xmlns="http://www.w3.org/2000/svg">
<path d="M14.4129 10.6707C10.5506 11.9467 9.26443 13.2331 7.98835 17.0952C7.88337 17.4127 7.43439 17.4127 7.32942 17.0952C6.05339 13.2329 4.76699 11.9467 0.904882 10.6707C0.58737 10.5657 0.58737 10.1167 0.904882 10.0117C4.76721 8.7357 6.05334 7.44931 7.32942 3.5872C7.43441 3.26968 7.88338 3.26968 7.98835 3.5872C9.26439 7.44952 10.5508 8.73566 14.4129 10.0117C14.7304 10.1167 14.7304 10.5657 14.4129 10.6707Z" fill="#8D7AFF"/>
<path d="M17.2143 4.32787C15.2836 4.96547 14.6401 5.60904 14.0016 7.54057C13.9496 7.69933 13.7251 7.69933 13.6722 7.54057C13.0346 5.60987 12.391 4.96634 10.4595 4.32787C10.3007 4.2758 10.3007 4.05132 10.4595 3.9984C12.3902 3.3608 13.0337 2.71723 13.6722 0.785695C13.7242 0.626936 13.9487 0.626936 14.0016 0.785695C14.6392 2.7164 15.2828 3.35992 17.2143 3.9984C17.3731 4.05047 17.3731 4.27494 17.2143 4.32787Z" fill="#8D7AFF"/>
</svg>
