<svg width="18" height="18" fill="none" xmlns="http://www.w3.org/2000/svg"><path fill-rule="evenodd" clip-rule="evenodd" d="M1.514 2.399C.75 3.45.75 4.95.75 7.95v2.1c0 3 0 4.5.764 5.551.247.34.545.638.885.885 1.051.764 2.551.764 5.551.764h2.1c3 0 4.5 0 5.551-.764.34-.247.638-.545.885-.885.764-1.051.764-2.551.764-5.551v-2.1c0-3 0-4.5-.764-5.551a4.002 4.002 0 0 0-.885-.885C14.55.75 13.05.75 10.05.75h-2.1c-3 0-4.5 0-5.551.764a4 4 0 0 0-.885.885Zm3.361 9.19c0 .382.26.624.672.624.352 0 .55-.176.673-.598l.334-.989h2.29l.333 1.002c.119.413.317.585.69.585.387 0 .664-.26.664-.624 0-.132-.022-.25-.084-.422l-1.74-4.72C8.518 5.928 8.21 5.7 7.692 5.7c-.501 0-.813.237-.998.751l-1.731 4.716a1.362 1.362 0 0 0-.088.422Zm3.66-1.991H6.845L7.666 7h.03l.84 2.597Zm2.984 1.925c0 .435.246.69.664.69.417 0 .664-.255.664-.69V6.394c0-.44-.247-.694-.664-.694-.418 0-.664.255-.664.694v5.129Z" fill="url(#a)"/><defs><linearGradient id="a" x1="9" y1=".75" x2="9" y2="17.25" gradientUnits="userSpaceOnUse"><stop stop-color="#75F"/><stop offset="1" stop-color="#897AFF"/><stop offset="1" stop-color="#907EF9"/></linearGradient></defs></svg>