<svg width="64" height="64" viewBox="0 0 64 64" fill="none" xmlns="http://www.w3.org/2000/svg">
<rect x="28" y="28" width="4" height="4" fill="#8D7AFF"/>
<rect x="28" y="32" width="4" height="4" fill="#8D7AFF"/>
<rect x="36" y="28" width="4" height="4" fill="#8D7AFF"/>
<rect x="36" y="32" width="4" height="4" fill="#8D7AFF"/>
<rect x="28" y="20" width="4" height="4" fill="#8D7AFF"/>
<rect x="32" y="16" width="4" height="4" fill="#8D7AFF"/>
<rect x="36" y="20" width="4" height="4" fill="#8D7AFF"/>
<rect x="40" y="20" width="4" height="4" fill="#8D7AFF"/>
<rect x="44" y="24" width="4" height="4" fill="#8D7AFF"/>
<rect x="48" y="24" width="4" height="4" fill="#8D7AFF"/>
<rect x="48" y="28" width="4" height="4" fill="#8D7AFF"/>
<rect x="48" y="32" width="4" height="4" fill="#8D7AFF"/>
<rect x="44" y="36" width="4" height="4" fill="#8D7AFF"/>
<rect x="40" y="40" width="4" height="4" fill="#8D7AFF"/>
<rect x="36" y="44" width="4" height="4" fill="#8D7AFF"/>
<rect x="36" y="48" width="4" height="4" fill="#8D7AFF"/>
<rect x="32" y="52" width="4" height="4" fill="#8D7AFF"/>
<rect x="28" y="48" width="4" height="4" fill="#8D7AFF"/>
<rect x="24" y="44" width="4" height="4" fill="#8D7AFF"/>
<rect x="24" y="40" width="4" height="4" fill="#8D7AFF"/>
<rect x="20" y="36" width="4" height="4" fill="#8D7AFF"/>
<rect x="20" y="32" width="4" height="4" fill="#8D7AFF"/>
<rect x="20" y="28" width="4" height="4" fill="#8D7AFF"/>
<rect x="20" y="24" width="4" height="4" fill="#8D7AFF"/>
<rect x="16" y="20" width="4" height="4" fill="#8D7AFF"/>
<rect x="16" y="16" width="4" height="4" fill="#8D7AFF"/>
<rect x="20" y="12" width="4" height="4" fill="#8D7AFF"/>
<rect x="24" y="8" width="4" height="4" fill="#8D7AFF"/>
<rect x="28" y="8" width="4" height="4" fill="#8D7AFF"/>
<rect x="32" y="4" width="4" height="4" fill="#8D7AFF"/>
<rect x="36" y="4" width="4" height="4" fill="#8D7AFF"/>
<rect x="40" y="4" width="4" height="4" fill="#8D7AFF"/>
<rect x="44" y="4" width="4" height="4" fill="#8D7AFF"/>
<rect x="48" y="8" width="4" height="4" fill="#8D7AFF"/>
<rect x="52" y="12" width="4" height="4" fill="#8D7AFF"/>
<rect x="56" y="16" width="4" height="4" fill="#8D7AFF"/>
<rect x="60" y="20" width="4" height="4" fill="#8D7AFF"/>
<rect x="52" y="40" width="4" height="4" fill="#8D7AFF"/>
<rect x="52" y="44" width="4" height="4" fill="#8D7AFF"/>
<rect x="56" y="48" width="4" height="4" fill="#8D7AFF"/>
<rect x="56" y="52" width="4" height="4" fill="#8D7AFF"/>
<rect x="52" y="56" width="4" height="4" fill="#8D7AFF"/>
<rect x="56" y="60" width="4" height="4" fill="#8D7AFF"/>
<rect x="52" y="60" width="4" height="4" fill="#8D7AFF"/>
<rect x="48" y="60" width="4" height="4" fill="#8D7AFF"/>
<rect x="44" y="60" width="4" height="4" fill="#491DBA"/>
<rect x="40" y="60" width="4" height="4" fill="#491DBA"/>
<rect x="36" y="60" width="4" height="4" fill="#8D7AFF"/>
<rect x="32" y="60" width="4" height="4" fill="#8D7AFF"/>
<rect x="28" y="60" width="4" height="4" fill="#8D7AFF"/>
<rect x="24" y="60" width="4" height="4" fill="#8D7AFF"/>
<rect x="20" y="56" width="4" height="4" fill="#8D7AFF"/>
<rect x="16" y="56" width="4" height="4" fill="#8D7AFF"/>
<rect x="4" y="60" width="4" height="4" fill="#8D7AFF"/>
<rect x="4" y="56" width="4" height="4" fill="#8D7AFF"/>
<rect x="4" y="52" width="4" height="4" fill="#8D7AFF"/>
<rect x="4" y="20" width="4" height="4" fill="#8D7AFF"/>
<rect y="16" width="4" height="4" fill="#8D7AFF"/>
<rect x="4" y="24" width="4" height="4" fill="#8D7AFF"/>
<rect x="4" y="28" width="4" height="4" fill="#8D7AFF"/>
<rect x="4" y="32" width="4" height="4" fill="#8D7AFF"/>
<rect x="4" y="36" width="4" height="4" fill="#8D7AFF"/>
<rect x="4" y="40" width="4" height="4" fill="#8D7AFF"/>
<rect x="4" y="44" width="4" height="4" fill="#8D7AFF"/>
<rect x="4" y="48" width="4" height="4" fill="#8D7AFF"/>
<rect x="12" y="44" width="4" height="4" fill="#8D7AFF"/>
<rect x="12" y="40" width="4" height="4" fill="#8D7AFF"/>
<rect x="16" y="44" width="4" height="4" fill="#8D7AFF"/>
<rect x="20" y="48" width="4" height="4" fill="#8D7AFF"/>
<rect x="52" y="20" width="4" height="4" fill="#8D7AFF"/>
<rect x="8" y="40" width="4" height="4" fill="#8D7AFF"/>
<rect x="8" y="36" width="4" height="4" fill="#8D7AFF"/>
<rect x="12" y="16" width="4" height="4" fill="#8D7AFF"/>
<rect x="52" y="32" width="4" height="4" fill="#8D7AFF"/>
<rect x="56" y="32" width="4" height="4" fill="#8D7AFF"/>
<rect x="60" y="52" width="4" height="4" fill="#8D7AFF"/>
<rect x="56" y="44" width="4" height="4" fill="#8D7AFF"/>
<rect x="44" y="40" width="4" height="4" fill="#491DBA"/>
<rect x="44" y="44" width="4" height="4" fill="#491DBA"/>
<rect x="40" y="44" width="4" height="4" fill="#491DBA"/>
<rect x="40" y="48" width="4" height="4" fill="#491DBA"/>
<rect x="32" y="8" width="4" height="4" fill="#491DBA"/>
<rect x="36" y="8" width="4" height="4" fill="#491DBA"/>
<rect x="40" y="8" width="4" height="4" fill="#491DBA"/>
<rect x="44" y="8" width="4" height="4" fill="#491DBA"/>
<rect x="44" y="12" width="4" height="4" fill="#491DBA"/>
<rect x="48" y="12" width="4" height="4" fill="#491DBA"/>
<rect x="32" y="12" width="4" height="4" fill="#491DBA"/>
<rect x="28" y="12" width="4" height="4" fill="#491DBA"/>
<rect x="24" y="12" width="4" height="4" fill="#491DBA"/>
<rect x="20" y="44" width="4" height="4" fill="#491DBA"/>
<rect x="16" y="48" width="4" height="4" fill="#491DBA"/>
<rect x="20" y="40" width="4" height="4" fill="#491DBA"/>
<rect x="16" y="40" width="4" height="4" fill="#491DBA"/>
<rect x="24" y="48" width="4" height="4" fill="#491DBA"/>
<rect x="28" y="52" width="4" height="4" fill="#491DBA"/>
<rect x="36" y="52" width="4" height="4" fill="#491DBA"/>
<rect x="32" y="56" width="4" height="4" fill="#491DBA"/>
<rect x="48" y="48" width="4" height="4" fill="#491DBA"/>
<rect x="52" y="48" width="4" height="4" fill="#491DBA"/>
<rect x="52" y="52" width="4" height="4" fill="#491DBA"/>
<rect x="48" y="56" width="4" height="4" fill="#491DBA"/>
<rect x="12" y="36" width="4" height="4" fill="#491DBA"/>
<rect x="8" y="52" width="4" height="4" fill="#491DBA"/>
<rect x="8" y="48" width="4" height="4" fill="#491DBA"/>
<rect x="8" y="44" width="4" height="4" fill="#491DBA"/>
<rect x="8" y="32" width="4" height="4" fill="#491DBA"/>
<rect x="8" y="28" width="4" height="4" fill="#491DBA"/>
<rect x="16" y="36" width="4" height="4" fill="#491DBA"/>
<rect x="52" y="16" width="4" height="4" fill="#491DBA"/>
<rect x="48" y="20" width="4" height="4" fill="#491DBA"/>
<rect x="44" y="20" width="4" height="4" fill="#491DBA"/>
<rect x="40" y="16" width="4" height="4" fill="#491DBA"/>
<rect x="20" y="20" width="4" height="4" fill="#8D7AFF"/>
<rect x="20" y="16" width="4" height="4" fill="#491DBA"/>
<rect x="24" y="20" width="4" height="4" fill="#8D7AFF"/>
<rect x="24" y="16" width="4" height="4" fill="#491DBA"/>
<rect x="4" y="16" width="4" height="4" fill="#491DBA"/>
<rect x="4" y="12" width="4" height="4" fill="#F9ED32"/>
<rect x="4" y="16" width="4" height="4" fill="#FF8B00"/>
<rect x="60" y="24" width="4" height="4" fill="#8D7AFF"/>
<rect x="56" y="12" width="4" height="4" fill="#8D7AFF"/>
</svg>
