<svg width="147" height="57" viewBox="0 0 147 57" fill="none" xmlns="http://www.w3.org/2000/svg">
<g clip-path="url(#clip0_1356_11865)">
<path d="M125.914 43.1763V22.4058H132.305V26.1748C133.042 23.471 134.927 22.283 138.532 22.283H141.359V27.8955H138.245C134.149 27.8955 132.428 29.5751 132.428 33.2213V43.1763H125.914Z" fill="#161616"/>
<path d="M97.3477 51.3001V22.4061H103.861V24.7823C105.582 22.7749 108.122 21.7097 111.4 21.7097C118.241 21.7097 122.666 26.0933 122.666 32.771C122.666 39.4896 118.241 43.8321 111.4 43.8321C108.122 43.8321 105.582 42.7669 103.861 40.8006V51.3001H97.3477ZM103.575 32.771C103.575 36.417 106.074 38.7932 109.843 38.7932C113.612 38.7932 116.111 36.417 116.111 32.771C116.111 29.2068 113.612 26.7897 109.843 26.7897C106.074 26.7897 103.575 29.2068 103.575 32.771Z" fill="#161616"/>
<path d="M78.6054 43.6683C73.3206 43.6683 70.2891 41.4561 70.2891 37.5642C70.2891 33.918 73.0748 31.7058 79.3838 30.7226L84.9144 29.8623C86.2254 29.6574 86.9218 29.6165 86.9218 28.6742C86.9218 27.1175 85.2831 26.1753 82.8251 26.1753C80.1622 26.1753 77.8681 27.2814 77.6632 29.4116H71.2723C72.0096 24.4135 76.2702 21.5869 82.9889 21.5869C89.7075 21.5869 93.5585 24.5365 93.5585 29.7804V36.7448V43.1767H88.0689L87.6592 40.5548C85.9386 42.4392 82.3743 43.6683 78.6054 43.6683ZM76.8848 37.0316C76.8848 38.4655 78.2367 39.2438 80.6128 39.2438C84.1361 39.2438 87.0446 37.5642 87.1266 35.0242L87.1676 33.7952L80.7766 34.6965C78.2776 35.0651 76.8848 35.6796 76.8848 37.0316Z" fill="#161616"/>
<path d="M37.8876 43.1763L30.3086 22.4058H37.1093L42.0663 36.7853L47.1463 22.4058H53.7829L58.8629 36.7853L63.8199 22.4058H70.047L62.468 43.1763H55.4217L50.1778 28.5099L44.9339 43.1763H37.8876Z" fill="#161616"/>
<path d="M15.035 43.9961C5.94027 43.9961 0.122902 39.8583 0 33.3036H6.63672C6.8006 36.9496 9.99605 38.8751 15.1989 38.8751C19.3776 38.8751 21.8766 37.7281 21.8766 35.5568C21.8766 33.7542 20.3198 32.6071 17.4932 32.2384L10.4877 31.2962C4.95706 30.5997 1.14709 27.732 1.14709 22.8159C1.14709 17.1623 6.14511 13.6802 14.1338 13.6802C22.4502 13.6802 27.653 17.572 27.8579 23.7991H21.303C21.1392 20.4398 18.3124 18.7191 14.0109 18.7191C10.1599 18.7191 7.82477 19.9072 7.82477 22.0784C7.82477 23.84 9.25864 24.9052 11.8396 25.274L18.3534 26.0932C25.6047 27.0356 28.8001 30.6816 28.8001 35.0652C28.8001 40.7187 23.4743 43.9961 15.035 43.9961Z" fill="#161616"/>
</g>
<defs>
<clipPath id="clip0_1356_11865">
<rect width="146.775" height="57" fill="white"/>
</clipPath>
</defs>
</svg>
