<svg width="112" height="112" viewBox="0 0 112 112" fill="none" xmlns="http://www.w3.org/2000/svg">
  <path d="M0 56C0 25.0721 25.0721 0 56 0C86.9279 0 112 25.0721 112 56C112 86.9279 86.9279 112 56 112C25.0721 112 0 86.9279 0 56Z" fill="url(#paint0_linear_6261_28643)"/>
  <path d="M47 80H65V84.8C65 87.7998 65 89.2997 64.2361 90.3511C63.9893 90.6907 63.6907 90.9893 63.3511 91.2361C62.2997 92 60.7998 92 57.8 92H54.2C51.2002 92 49.7003 92 48.6489 91.2361C48.3093 90.9893 48.0107 90.6907 47.7639 90.3511C47 89.2997 47 87.7998 47 84.8V80Z" fill="black"/>
  <path d="M45 79C45 77.8954 45.8954 77 47 77H65C66.1046 77 67 77.8954 67 79C67 80.1046 66.1046 81 65 81H47C45.8954 81 45 80.1046 45 79Z" fill="black"/>
  <rect x="54" y="92" width="4" height="20" fill="black"/>
  <rect x="48" y="71" width="4" height="6" fill="black"/>
  <rect x="60" y="71" width="4" height="6" fill="black"/>
  <path fill-rule="evenodd" clip-rule="evenodd" d="M38.5 26.625C37.1193 26.625 36 27.7443 36 29.125V57.875C36 59.2557 37.1193 60.375 38.5 60.375H66.625C71.8027 60.375 76 56.1777 76 51V36C76 30.8223 71.8027 26.625 66.625 26.625H38.5ZM64.75 37.875C61.6434 37.875 59.125 40.3934 59.125 43.5C59.125 46.6066 61.6434 49.125 64.75 49.125H72.25V37.875H64.75ZM51 53.5C51 54.5355 50.1605 55.375 49.125 55.375H42.875C41.8395 55.375 41 54.5355 41 53.5C41 52.4645 41.8395 51.625 42.875 51.625H49.125C50.1605 51.625 51 52.4645 51 53.5ZM64.75 46.625C66.4759 46.625 67.875 45.2259 67.875 43.5C67.875 41.7741 66.4759 40.375 64.75 40.375C63.0241 40.375 61.625 41.7741 61.625 43.5C61.625 45.2259 63.0241 46.625 64.75 46.625Z" fill="black"/>
  <defs>
  <linearGradient id="paint0_linear_6261_28643" x1="56" y1="0" x2="56" y2="112" gradientUnits="userSpaceOnUse">
  <stop stop-color="#7755FF"/>
  <stop offset="1" stop-color="#1C0A53"/>
  </linearGradient>
  </defs>
</svg>
